<?xml version="1.0" standalone="no"?>
<!DOCTYPE svg PUBLIC "-//W3C//DTD SVG 20010904//EN"
 "http://www.w3.org/TR/2001/REC-SVG-20010904/DTD/svg10.dtd">
<svg version="1.0" xmlns="http://www.w3.org/2000/svg"
 width="500.000000pt" height="500.000000pt" viewBox="0 0 500.000000 500.000000"
 preserveAspectRatio="xMidYMid meet">

<g transform="translate(0.000000,500.000000) scale(0.100000,-0.100000)"
fill="#000000" stroke="none">
<path d="M2376 4282 c-8 -13 -30 -348 -24 -364 9 -23 197 -33 262 -14 85 26
127 86 127 183 1 108 -74 178 -203 188 -35 3 -84 7 -110 10 -26 2 -49 1 -52
-3z m239 -106 c57 -44 60 -129 5 -181 -31 -30 -103 -44 -156 -31 l-26 7 7 112
c4 62 10 116 13 121 2 5 31 6 64 3 42 -4 68 -12 93 -31z"/>
<path d="M2838 4094 c-35 -18 -68 -82 -68 -128 0 -77 49 -131 141 -156 29 -8
49 -8 75 0 33 11 33 12 20 39 -13 23 -19 27 -50 23 -47 -6 -106 30 -106 64 0
13 4 24 8 24 4 0 46 -13 92 -30 110 -38 118 -38 126 5 12 67 -23 137 -82 161
-43 18 -122 17 -156 -2z m133 -55 c21 -11 43 -55 34 -69 -3 -5 -31 0 -63 11
-94 32 -90 28 -63 50 26 21 62 25 92 8z"/>
<path d="M1754 4064 c-26 -27 -35 -32 -40 -20 -5 12 -11 13 -32 4 -15 -7 -30
-15 -35 -18 -4 -4 9 -47 29 -96 20 -49 40 -102 45 -119 16 -55 22 -59 63 -44
26 9 36 18 32 29 -3 8 -17 48 -31 88 -24 67 -25 74 -10 102 9 17 19 30 23 30
24 1 32 17 21 48 -6 18 -16 32 -21 32 -6 0 -26 -16 -44 -36z"/>
<path d="M3141 3931 c-26 -231 -27 -203 15 -227 l38 -21 40 31 c97 74 201 159
204 165 1 4 -13 14 -31 23 l-34 16 -82 -65 c-45 -36 -83 -64 -85 -62 -1 2 2
50 7 107 9 96 9 104 -9 117 -47 34 -51 29 -63 -84z"/>
<path d="M2078 3959 c-26 -15 -23 -64 4 -83 29 -20 34 -20 58 4 48 48 -4 113
-62 79z"/>
<path d="M1439 3927 c-73 -39 -110 -134 -76 -193 63 -108 175 -122 268 -34 39
37 52 80 25 80 -8 0 -21 3 -29 6 -10 3 -18 -2 -22 -16 -8 -25 -61 -60 -91 -60
-11 0 -28 6 -38 13 -17 12 -10 19 78 72 53 33 96 62 96 66 0 4 -14 22 -32 39
-56 56 -108 64 -179 27z m109 -59 c9 -9 -2 -21 -49 -51 -64 -39 -87 -39 -74 2
16 51 91 81 123 49z"/>
<path d="M3442 3789 c-20 -6 -44 -25 -62 -51 -37 -50 -41 -115 -10 -165 29
-48 96 -93 138 -93 31 0 34 2 28 23 -3 12 -6 24 -6 27 0 4 -16 12 -35 19 -53
19 -97 96 -66 115 5 3 46 -26 92 -64 78 -66 84 -69 101 -53 24 22 41 87 32
126 -10 49 -57 102 -102 115 -45 14 -64 14 -110 1z m124 -84 c25 -25 31 -75 9
-81 -5 -2 -32 17 -60 41 -41 37 -47 47 -35 55 26 17 60 11 86 -15z"/>
<path d="M1198 3755 c-18 -15 -24 -26 -17 -31 7 -4 -7 -15 -32 -26 -62 -28
-92 -68 -97 -134 -4 -53 -4 -55 42 -100 45 -46 47 -46 99 -42 62 5 108 35 132
85 14 28 19 32 31 22 40 -33 -4 -114 -77 -143 -30 -12 -39 -21 -35 -32 3 -9 6
-22 6 -30 0 -22 30 -17 86 16 91 51 137 152 101 217 -15 26 -196 223 -205 223
-4 0 -19 -11 -34 -25z m70 -131 c30 -34 28 -60 -7 -95 -36 -35 -75 -38 -108
-7 -27 25 -30 64 -7 96 33 47 82 49 122 6z"/>
<path d="M3829 3657 c-14 -10 -60 -52 -243 -219 l-41 -36 24 -26 c14 -14 29
-26 34 -26 10 0 97 76 223 194 32 31 62 56 67 56 15 0 6 27 -16 48 -27 25 -27
25 -48 9z"/>
<path d="M944 3451 c-35 -10 -81 -54 -103 -98 -24 -49 -28 -93 -7 -93 8 0 21
-3 29 -6 10 -4 16 5 21 29 10 51 41 87 77 87 37 0 36 -11 -1 -65 -40 -57 -47
-97 -26 -130 26 -39 63 -49 106 -30 43 19 70 60 70 105 0 26 3 30 18 26 12 -4
23 3 36 25 10 17 16 32 14 33 -1 2 -39 28 -83 58 -83 57 -115 70 -151 59z
m114 -133 c30 -30 -1 -112 -40 -106 -40 6 -44 33 -14 77 31 44 36 47 54 29z"/>
<path d="M3785 3415 c-50 -17 -92 -66 -100 -115 -14 -81 58 -179 142 -196 44
-9 117 26 143 68 35 57 36 92 4 156 -42 83 -110 114 -189 87z m110 -90 c42
-41 30 -102 -25 -130 -74 -38 -143 44 -94 113 32 46 84 53 119 17z"/>
<path d="M750 3149 c-39 -15 -63 -57 -68 -116 -3 -39 -8 -53 -18 -49 -8 3 -17
-8 -24 -30 -7 -20 -10 -37 -8 -39 1 -2 61 -28 133 -58 l129 -55 14 31 c17 42
12 51 -45 71 -81 30 -123 62 -123 94 0 43 26 72 65 72 19 0 36 -4 39 -9 3 -5
18 -12 33 -16 15 -3 43 -14 64 -24 l37 -18 16 35 c10 19 13 38 9 42 -19 16
-183 80 -205 79 -13 0 -34 -5 -48 -10z"/>
<path d="M4058 3125 c-3 -3 -77 -33 -164 -66 -87 -33 -163 -64 -168 -69 -4 -4
-3 -24 4 -44 l11 -35 52 20 c29 12 57 23 62 25 6 2 10 -14 10 -39 0 -138 166
-195 264 -91 32 35 33 39 29 101 -4 59 -8 69 -36 94 -24 21 -28 30 -18 36 11
7 11 14 -1 41 -12 29 -31 41 -45 27z m12 -135 c31 -31 27 -83 -11 -114 -38
-32 -70 -33 -103 -3 -41 36 -43 71 -8 107 37 37 91 41 122 10z"/>
<path d="M617 2779 c-30 -18 -57 -88 -57 -149 0 -69 9 -83 43 -75 25 7 26 10
21 49 -8 57 16 106 52 106 20 0 25 -4 20 -17 -4 -9 -9 -42 -13 -72 -5 -51 -3
-60 22 -89 32 -38 70 -42 108 -11 34 26 52 90 38 131 -14 39 -14 41 3 35 12
-5 26 29 26 64 0 24 -230 49 -263 28z m179 -105 c31 -46 -15 -119 -52 -82 -24
24 -11 108 16 108 11 0 27 -12 36 -26z"/>
<path d="M4018 2728 c-49 -28 -73 -88 -65 -156 7 -59 22 -94 48 -110 16 -10
21 -8 35 13 14 22 14 26 0 47 -29 40 -16 138 18 138 9 0 17 -26 25 -77 24
-154 20 -144 50 -137 50 13 81 35 101 74 72 142 -76 287 -212 208z m151 -84
c25 -32 27 -61 5 -92 -24 -35 -41 -27 -47 23 -4 25 -9 56 -13 70 -5 21 -3 25
14 25 11 0 30 -12 41 -26z"/>
<path d="M620 2453 c-30 -1 -83 -5 -118 -9 l-63 -6 3 -36 c3 -34 7 -37 110
-92 60 -31 113 -61 119 -67 7 -7 -24 -33 -103 -86 l-114 -76 4 -37 4 -36 94 6
c52 3 137 9 189 12 l95 6 0 37 0 37 -110 -4 c-60 -3 -110 -2 -110 0 0 3 38 32
85 64 110 74 109 82 -7 143 -48 26 -89 49 -93 52 -3 4 44 10 104 14 l111 7 0
39 0 39 -72 -2 c-40 -1 -98 -3 -128 -5z"/>
<path d="M3970 2351 l0 -39 91 -4 c85 -4 94 -6 115 -32 13 -15 24 -36 24 -47
0 -15 7 -19 35 -19 30 0 35 3 35 24 0 13 -9 35 -21 50 l-20 26 20 0 c18 0 21
6 21 40 l0 40 -150 0 -150 0 0 -39z"/>
<path d="M3954 2032 c-24 -15 -26 -50 -5 -71 26 -26 46 -26 71 -1 23 23 24 33
10 61 -11 19 -54 26 -76 11z"/>
<path d="M838 1839 c-21 -12 -24 -59 -6 -77 19 -19 66 -15 78 7 29 54 -20 101
-72 70z"/>
<path d="M3955 1735 c-5 -2 -23 -6 -38 -9 -16 -4 -47 -24 -70 -44 -23 -21 -61
-46 -84 -56 -67 -30 -113 -90 -113 -149 0 -35 14 -49 42 -42 20 5 24 11 20 35
-3 22 3 36 24 57 15 15 28 23 30 18 1 -6 7 -36 14 -68 14 -69 48 -112 108
-138 117 -51 232 5 276 134 19 56 19 69 5 120 -16 58 -72 114 -132 132 -50 15
-63 16 -82 10z m107 -125 c39 -38 40 -42 36 -91 -12 -116 -130 -157 -214 -73
-29 29 -34 42 -34 79 0 38 6 52 36 85 33 37 41 40 86 40 45 0 54 -4 90 -40z"/>
<path d="M961 1490 c-76 -47 -103 -50 -140 -12 l-28 27 -32 -19 -32 -19 27
-28 c15 -16 34 -29 42 -29 12 0 12 -3 2 -15 -9 -11 -8 -20 6 -45 22 -36 16
-38 161 46 l112 65 -16 35 c-9 19 -21 34 -27 34 -6 -1 -40 -19 -75 -40z"/>
<path d="M1077 1384 c-18 -18 -4 -51 33 -76 42 -29 56 -62 46 -103 -8 -32 -16
-27 -65 38 -81 107 -85 111 -108 99 -32 -17 -67 -97 -59 -134 10 -49 45 -97
87 -118 131 -67 263 57 205 193 -25 59 -115 125 -139 101z m-19 -175 c23 -29
42 -56 42 -60 0 -5 -14 -9 -30 -9 -54 0 -93 55 -74 104 9 24 17 20 62 -35z"/>
<path d="M3643 1350 c-35 -21 -63 -66 -63 -100 0 -16 -5 -20 -18 -16 -12 4
-27 -3 -43 -20 l-24 -26 26 -21 c14 -12 65 -55 113 -96 l86 -73 25 26 c14 15
25 31 25 35 0 5 -15 20 -32 34 -61 46 -108 98 -108 118 0 11 7 31 16 44 28 42
64 33 145 -36 l71 -62 24 29 c13 16 23 32 24 35 0 10 -124 116 -157 132 -42
22 -71 21 -110 -3z"/>
<path d="M1237 1092 c-37 -48 -92 -118 -122 -157 -30 -38 -55 -72 -54 -75 0
-7 59 -53 62 -49 17 27 80 99 87 99 4 0 11 -11 14 -24 7 -28 52 -63 96 -76 66
-19 154 37 180 114 25 77 -40 176 -116 176 -31 0 -34 2 -25 18 8 15 4 23 -19
40 -16 12 -30 22 -32 21 -2 0 -33 -39 -71 -87z m170 -69 c45 -60 -23 -159 -91
-133 -60 22 -69 88 -20 137 21 21 32 24 62 19 20 -3 43 -13 49 -23z"/>
<path d="M3435 1128 c-39 -11 -72 -39 -85 -72 -6 -18 -14 -24 -25 -20 -9 4
-26 -3 -40 -16 l-24 -23 28 -41 c16 -23 51 -65 79 -95 50 -53 51 -54 97 -49
52 6 105 43 143 98 28 42 28 44 -5 56 -25 8 -30 6 -48 -20 -28 -41 -65 -61
-98 -52 -15 3 -27 10 -27 14 1 4 23 24 50 46 61 48 78 91 56 134 -18 36 -59
52 -101 40z m33 -99 c2 -20 -4 -32 -28 -49 -37 -26 -60 -20 -60 16 0 61 81 91
88 33z"/>
<path d="M1535 876 c-25 -51 -45 -107 -45 -124 0 -64 91 -131 178 -132 40 0
42 1 42 30 0 27 -3 30 -32 30 -41 0 -94 31 -103 60 -12 38 9 44 63 16 50 -25
106 -33 128 -18 18 11 34 49 34 77 0 56 -51 95 -126 95 -25 0 -32 4 -28 14 4
9 -6 20 -25 30 -16 9 -33 16 -36 16 -3 0 -25 -42 -50 -94z m160 -18 c18 -8 25
-19 25 -40 0 -23 -4 -28 -25 -28 -27 0 -95 29 -95 41 0 11 42 39 57 39 7 0 24
-5 38 -12z"/>
<path d="M3183 955 c-18 -8 -33 -17 -33 -20 0 -3 16 -37 35 -75 39 -77 44
-119 18 -142 -55 -47 -88 -29 -138 76 l-40 83 -32 -15 c-18 -9 -33 -22 -33
-29 0 -7 20 -54 45 -103 36 -72 52 -94 79 -107 50 -23 102 -10 148 38 22 23
38 33 41 26 3 -9 13 -8 40 5 l36 17 -42 88 c-49 101 -86 173 -90 173 -1 -1
-17 -7 -34 -15z"/>
<path d="M1912 744 c-26 -96 -42 -114 -97 -114 -36 0 -44 -4 -49 -22 -12 -48
-9 -51 44 -46 41 4 50 2 48 -10 -3 -16 47 -36 68 -28 7 3 17 28 24 58 7 29 24
84 37 122 12 38 23 75 23 81 0 9 -53 35 -72 35 -3 0 -15 -34 -26 -76z"/>
<path d="M2761 790 l-44 -20 19 -23 c10 -12 19 -23 20 -25 1 -1 13 3 28 9 22
10 29 10 40 -2 11 -11 46 -112 46 -132 0 -3 -15 -11 -34 -17 -31 -10 -33 -14
-27 -38 6 -21 13 -26 32 -24 13 2 30 5 38 5 8 1 18 -12 23 -31 7 -28 12 -32
31 -27 12 4 30 9 39 11 13 4 15 11 7 36 -8 31 -4 41 25 51 5 2 6 16 2 31 -6
23 -11 27 -30 22 -22 -5 -25 0 -46 74 -12 43 -30 86 -40 95 -29 26 -80 28
-129 5z"/>
<path d="M2136 648 c-9 -68 -19 -138 -23 -156 l-5 -33 -62 3 -61 3 0 -29 0
-30 160 -22 c88 -12 161 -22 161 -21 1 1 5 16 8 34 7 31 6 32 -31 38 -79 13
-83 15 -82 38 0 12 8 81 17 154 l17 131 -29 6 c-16 3 -34 6 -41 6 -8 0 -18
-42 -29 -122z"/>
<path d="M2486 744 c-19 -18 -21 -55 -4 -72 19 -19 65 -14 82 9 34 49 -36 106
-78 63z"/>
</g>
</svg>
